0
SECTION
2
HEADER
9
$INSUNITS
70
4
9
$ACADVER
1
AC1014
9
$HANDSEED
5
FFFF
0
ENDSEC
0
SECTION
2
TABLES
0
TABLE
2
VPORT
5
8
100
AcDbSymbolTable
0
ENDTAB
0
TABLE
2
LTYPE
5
5
100
AcDbSymbolTable
0
LTYPE
5
14
100
AcDbSymbolTableRecord
100
AcDbLinetypeTableRecord
2
BYBLOCK
70
0
0
LTYPE
5
15
100
AcDbSymbolTableRecord
100
AcDbLinetypeTableRecord
2
BYLAYER
70
0
0
ENDTAB
0
TABLE
2
LAYER
5
2
100
AcDbSymbolTable
70
2
0
LAYER
5
50
100
AcDbSymbolTableRecord
100
AcDbLayerTableRecord
2
0
70
0
6
CONTINUOUS
0
ENDTAB
0
TABLE
2
STYLE
5
3
100
AcDbSymbolTable
70
1
0
STYLE
5
11
100
AcDbSymbolTableRecord
100
AcDbTextStyleTableRecord
2
STANDARD
70
0
0
ENDTAB
0
TABLE
2
VIEW
5
6
100
AcDbSymbolTable
70
0
0
ENDTAB
0
TABLE
2
UCS
5
7
100
AcDbSymbolTable
70
0
0
ENDTAB
0
TABLE
2
APPID
5
9
100
AcDbSymbolTable
70
2
0
APPID
5
12
100
AcDbSymbolTableRecord
100
AcDbRegAppTableRecord
2
ACAD
70
0
0
ENDTAB
0
TABLE
2
DIMSTYLE
5
A
100
AcDbSymbolTable
70
1
0
ENDTAB
0
TABLE
2
BLOCK_RECORD
5
1
100
AcDbSymbolTable
70
1
0
BLOCK_RECORD
5
1F
100
AcDbSymbolTableRecord
100
AcDbBlockTableRecord
2
*MODEL_SPACE
0
BLOCK_RECORD
5
1B
100
AcDbSymbolTableRecord
100
AcDbBlockTableRecord
2
*PAPER_SPACE
0
ENDTAB
0
ENDSEC
0
SECTION
2
BLOCKS
0
BLOCK
5
20
100
AcDbEntity
100
AcDbBlockBegin
2
*MODEL_SPACE
0
ENDBLK
5
21
100
AcDbEntity
100
AcDbBlockEnd
0
BLOCK
5
1C
100
AcDbEntity
100
AcDbBlockBegin
2
*PAPER_SPACE
0
ENDBLK
5
1D
100
AcDbEntity
100
AcDbBlockEnd
0
ENDSEC
0
SECTION
2
ENTITIES
0
LWPOLYLINE
5
100
100
AcDbEntity
8
0
100
AcDbPolyline
90
24
70
1
43
0.0
10
-174.09998474121099
20
-214.00000000000003
10
-201.39998474121097
20
-214.00000000000003
42
0.41421356237309503
10
-202.59998474121096
20
-215.20000000000005
10
-202.59998474121093
20
-254
10
-300.99998474121099
20
-253.99999999999991
10
-300.99998474121094
20
2.914335433023591e-14
10
-282.19998474121093
20
2.7200464103316335e-14
42
0.41421356237309498
10
-280.99998474121094
20
1.2000000000000277
10
-280.99998474121094
20
20.000000000000036
10
-20.999984741210938
20
19.999999999999993
10
-20.999984741210866
20
1.1999999999999829
42
0.41421356237309509
10
-19.799984741210892
20
-1.76858528484532e-14
10
-0.9999847412109375
20
0
10
-0.99998474121100855
20
-254.00000000000006
10
-99.399984741211
20
-254
10
-99.399984741211043
20
-215.20000000000005
42
0.41421356237309503
10
-100.59998474121105
20
-214.00000000000003
10
-127.89998474121094
20
-214.00000000000006
42
-0.41421356237309503
10
-129.09998474121099
20
-212.80000000000001
10
-129.09998474121099
20
-196
42
0.41421356237309503
10
-134.09998474121099
20
-191
10
-167.89998474121103
20
-191
42
0.41421356237309503
10
-172.89998474121103
20
-196
10
-172.89998474121097
20
-212.80000000000001
42
-0.41421356237309503
0
LINE
5
101
100
AcDbEntity
8
0
100
AcDbLine
10
-40.999984741211009
20
-232.80000000000004
30
4.7683715198587606e-07
11
-40.999984741210938
21
-205.20000000000007
31
4.7683715476143362e-07
0
ARC
5
102
100
AcDbEntity
8
0
100
AcDbCircle
10
-39.799984741210892
20
-205.20000000000007
30
4.7683715476143362e-07
40
1.2000000000000099
210
0
220
-0
230
1
100
AcDbArc
50
90
51
180
0
LINE
5
103
100
AcDbEntity
8
0
100
AcDbLine
10
-39.799984741210892
20
-204.00000000000006
30
4.7683715476143362e-07
11
-22.199984741210912
21
-204.00000000000006
31
4.7683715476143362e-07
0
ARC
5
104
100
AcDbEntity
8
0
100
AcDbCircle
10
-22.199984741210912
20
-205.20000000000007
30
4.7683715476143362e-07
40
1.1999999999999744
210
0
220
0
230
1
100
AcDbArc
50
0
51
90
0
LINE
5
105
100
AcDbEntity
8
0
100
AcDbLine
10
-20.999984741210938
20
-205.20000000000007
30
4.7683715476143362e-07
11
-20.999984741211009
21
-232.80000000000004
31
4.7683715198587606e-07
0
ARC
5
106
100
AcDbEntity
8
0
100
AcDbCircle
10
-22.199984741211054
20
-232.80000000000004
30
4.7683715143076455e-07
40
1.2000000000000099
210
0
220
0
230
1
100
AcDbArc
50
-90
51
0
0
LINE
5
107
100
AcDbEntity
8
0
100
AcDbLine
10
-22.199984741211054
20
-234.00000000000006
30
4.7683715143076455e-07
11
-39.799984741210963
21
-234.00000000000006
31
3.5762785177695378e-07
0
ARC
5
108
100
AcDbEntity
8
0
100
AcDbCircle
10
-39.799984741210963
20
-232.80000000000004
30
4.7683715143076455e-07
40
1.2000000000000455
210
4.6259292692713104e-16
220
0
230
1
100
AcDbArc
50
180
51
270
0
CIRCLE
5
109
100
AcDbEntity
8
0
100
AcDbCircle
10
290.99998474121099
20
-244.00000000000003
30
-4.7683715476143362e-07
40
2.5999999999999979
210
-2.1895288505075267e-47
220
3.6462980143717627e-63
230
-1
0
CIRCLE
5
110
100
AcDbEntity
8
0
100
AcDbCircle
10
290.99998474121094
20
-9.999999999999968
30
-4.7683715476143362e-07
40
2.5999999999999979
210
-2.1895288505075267e-47
220
3.6462980143717627e-63
230
-1
0
CIRCLE
5
111
100
AcDbEntity
8
0
100
AcDbCircle
10
10.999984741210938
20
-10.000000000000014
30
-4.7683715476143362e-07
40
2.5999999999999801
210
-2.1895288505075267e-47
220
3.6462980143717627e-63
230
-1
0
CIRCLE
5
112
100
AcDbEntity
8
0
100
AcDbCircle
10
10.507602895554768
20
-244.00000000000006
30
-4.7683715476143362e-07
40
2.5999999999999801
210
-2.1895288505075267e-47
220
3.6462980143717627e-63
230
-1
0
ENDSEC
0
SECTION
2
OBJECTS
0
DICTIONARY
5
C
100
AcDbDictionary
3
ACAD_GROUP
350
D
3
ACAD_MLINESTYLE
350
17
0
DICTIONARY
5
D
100
AcDbDictionary
0
DICTIONARY
5
1A
330
C
100
AcDbDictionary
0
DICTIONARY
5
17
100
AcDbDictionary
0
ENDSEC
0
EOF
