0
SECTION
2
HEADER
9
$INSUNITS
70
4
9
$ACADVER
1
AC1014
9
$HANDSEED
5
FFFF
0
ENDSEC
0
SECTION
2
TABLES
0
TABLE
2
VPORT
5
8
100
AcDbSymbolTable
0
ENDTAB
0
TABLE
2
LTYPE
5
5
100
AcDbSymbolTable
0
LTYPE
5
14
100
AcDbSymbolTableRecord
100
AcDbLinetypeTableRecord
2
BYBLOCK
70
0
0
LTYPE
5
15
100
AcDbSymbolTableRecord
100
AcDbLinetypeTableRecord
2
BYLAYER
70
0
0
ENDTAB
0
TABLE
2
LAYER
5
2
100
AcDbSymbolTable
70
2
0
LAYER
5
50
100
AcDbSymbolTableRecord
100
AcDbLayerTableRecord
2
0
70
0
6
CONTINUOUS
0
ENDTAB
0
TABLE
2
STYLE
5
3
100
AcDbSymbolTable
70
1
0
STYLE
5
11
100
AcDbSymbolTableRecord
100
AcDbTextStyleTableRecord
2
STANDARD
70
0
0
ENDTAB
0
TABLE
2
VIEW
5
6
100
AcDbSymbolTable
70
0
0
ENDTAB
0
TABLE
2
UCS
5
7
100
AcDbSymbolTable
70
0
0
ENDTAB
0
TABLE
2
APPID
5
9
100
AcDbSymbolTable
70
2
0
APPID
5
12
100
AcDbSymbolTableRecord
100
AcDbRegAppTableRecord
2
ACAD
70
0
0
ENDTAB
0
TABLE
2
DIMSTYLE
5
A
100
AcDbSymbolTable
70
1
0
ENDTAB
0
TABLE
2
BLOCK_RECORD
5
1
100
AcDbSymbolTable
70
1
0
BLOCK_RECORD
5
1F
100
AcDbSymbolTableRecord
100
AcDbBlockTableRecord
2
*MODEL_SPACE
0
BLOCK_RECORD
5
1B
100
AcDbSymbolTableRecord
100
AcDbBlockTableRecord
2
*PAPER_SPACE
0
ENDTAB
0
ENDSEC
0
SECTION
2
BLOCKS
0
BLOCK
5
20
100
AcDbEntity
100
AcDbBlockBegin
2
*MODEL_SPACE
0
ENDBLK
5
21
100
AcDbEntity
100
AcDbBlockEnd
0
BLOCK
5
1C
100
AcDbEntity
100
AcDbBlockBegin
2
*PAPER_SPACE
0
ENDBLK
5
1D
100
AcDbEntity
100
AcDbBlockEnd
0
ENDSEC
0
SECTION
2
ENTITIES
0
LWPOLYLINE
5
100
100
AcDbEntity
8
0
100
AcDbPolyline
90
8
70
1
43
0.0
10
956.63659008788545
20
532.49909496306555
10
974.03659008788554
20
532.49909496306509
42
0.41421356237309503
10
975.33659008788561
20
533.79909496306516
10
975.33659008788618
20
561.19906873702166
42
0.41421356237309503
10
974.03659008788622
20
562.49906873702162
10
956.63659008788613
20
562.49906873702207
42
0.41421356237309503
10
955.33659008788618
20
561.19906873702212
10
955.3365900878855
20
533.7990949630655
42
0.41421356237309503
0
CIRCLE
5
101
100
AcDbEntity
8
0
100
AcDbCircle
10
986.52359008789108
20
776.49867687987364
30
0
40
2.5999999999999095
210
2.5713600635594284e-44
220
-4.6390226141436691e-60
230
1
0
CIRCLE
5
102
100
AcDbEntity
8
0
100
AcDbCircle
10
746.52359008788505
20
522.49067687987963
30
0
40
2.5999999999999805
210
2.3593702309111252e-32
220
1.9721522630525243e-31
230
1
0
CIRCLE
5
103
100
AcDbEntity
8
0
100
AcDbCircle
10
986.52359008788505
20
522.4906768798744
30
0
40
2.5999999999999983
210
2.3593702309112435e-32
220
-5.3338085422771901e-46
230
1
0
CIRCLE
5
104
100
AcDbEntity
8
0
100
AcDbCircle
10
746.52359008789108
20
776.49867687987899
30
0
40
2.6000000000000516
210
2.5713600635594289e-44
220
-4.6390226141436707e-60
230
1
0
CIRCLE
5
105
100
AcDbEntity
8
0
100
AcDbCircle
10
1007.3365900878905
20
756.49067687987372
30
0
40
2.6000000000000161
210
2.3593702309112435e-32
220
-5.3338085422771901e-46
230
1
0
CIRCLE
5
106
100
AcDbEntity
8
0
100
AcDbCircle
10
1007.336590087886
20
542.49906873702093
30
-7.1054273576010019e-14
40
2.6000000000000005
210
-2.5710104267200803e-32
220
5.8122617623376987e-46
230
1
0
CIRCLE
5
107
100
AcDbEntity
8
0
100
AcDbCircle
10
727.33659008789027
20
756.49067687987997
30
-7.1054273576010019e-14
40
2.6000000000000161
210
2.3593702309112435e-32
220
-5.3338085422771901e-46
230
1
0
CIRCLE
5
108
100
AcDbEntity
8
0
100
AcDbCircle
10
727.33659008788561
20
542.49906873702707
30
-7.1054273576010019e-14
40
2.6000000000000161
210
2.3593702309112435e-32
220
-5.3338085422771901e-46
230
1
0
LWPOLYLINE
5
109
100
AcDbEntity
8
0
100
AcDbPolyline
90
20
70
1
43
0.0
10
815.73703139461281
20
512.49909496306873
10
717.33659008788504
20
512.49909496307089
10
717.3365900878905
20
766.49867687988012
10
736.52359008789062
20
766.49867687987967
10
736.52359008789085
20
786.49867687987967
10
996.52359008789108
20
786.49867687987398
10
996.52359008789051
20
766.49867687987398
10
1017.336590087891
20
766.49867687987353
10
1017.3365900878853
20
512.49909496306429
10
918.93703139461286
20
512.49909496306645
10
918.93703139461365
20
551.29908878094693
42
0.41421356237309503
10
917.6370313946137
20
552.59908878094689
10
889.3370313946026
20
552.59908878094757
10
889.33703139460135
20
570.18607022385356
42
0.41421356236953266
10
884.23703139463169
20
575.286070223823
10
850.43703139463105
20
575.28607022382278
42
0.41421356237327867
10
845.33703139460044
20
570.18607022384924
10
845.33703139460033
20
552.59908878094859
10
817.03703139461368
20
552.59908878094916
42
0.41421356237309503
10
815.73703139461361
20
551.29908878094921
0
ENDSEC
0
SECTION
2
OBJECTS
0
DICTIONARY
5
C
100
AcDbDictionary
3
ACAD_GROUP
350
D
3
ACAD_MLINESTYLE
350
17
0
DICTIONARY
5
D
100
AcDbDictionary
0
DICTIONARY
5
1A
330
C
100
AcDbDictionary
0
DICTIONARY
5
17
100
AcDbDictionary
0
ENDSEC
0
EOF
