0
SECTION
2
HEADER
9
$INSUNITS
70
4
9
$ACADVER
1
AC1014
9
$HANDSEED
5
FFFF
0
ENDSEC
0
SECTION
2
TABLES
0
TABLE
2
VPORT
5
8
100
AcDbSymbolTable
0
ENDTAB
0
TABLE
2
LTYPE
5
5
100
AcDbSymbolTable
0
LTYPE
5
14
100
AcDbSymbolTableRecord
100
AcDbLinetypeTableRecord
2
BYBLOCK
70
0
0
LTYPE
5
15
100
AcDbSymbolTableRecord
100
AcDbLinetypeTableRecord
2
BYLAYER
70
0
0
ENDTAB
0
TABLE
2
LAYER
5
2
100
AcDbSymbolTable
70
2
0
LAYER
5
50
100
AcDbSymbolTableRecord
100
AcDbLayerTableRecord
2
0
70
0
6
CONTINUOUS
0
ENDTAB
0
TABLE
2
STYLE
5
3
100
AcDbSymbolTable
70
1
0
STYLE
5
11
100
AcDbSymbolTableRecord
100
AcDbTextStyleTableRecord
2
STANDARD
70
0
0
ENDTAB
0
TABLE
2
VIEW
5
6
100
AcDbSymbolTable
70
0
0
ENDTAB
0
TABLE
2
UCS
5
7
100
AcDbSymbolTable
70
0
0
ENDTAB
0
TABLE
2
APPID
5
9
100
AcDbSymbolTable
70
2
0
APPID
5
12
100
AcDbSymbolTableRecord
100
AcDbRegAppTableRecord
2
ACAD
70
0
0
ENDTAB
0
TABLE
2
DIMSTYLE
5
A
100
AcDbSymbolTable
70
1
0
ENDTAB
0
TABLE
2
BLOCK_RECORD
5
1
100
AcDbSymbolTable
70
1
0
BLOCK_RECORD
5
1F
100
AcDbSymbolTableRecord
100
AcDbBlockTableRecord
2
*MODEL_SPACE
0
BLOCK_RECORD
5
1B
100
AcDbSymbolTableRecord
100
AcDbBlockTableRecord
2
*PAPER_SPACE
0
ENDTAB
0
ENDSEC
0
SECTION
2
BLOCKS
0
BLOCK
5
20
100
AcDbEntity
100
AcDbBlockBegin
2
*MODEL_SPACE
0
ENDBLK
5
21
100
AcDbEntity
100
AcDbBlockEnd
0
BLOCK
5
1C
100
AcDbEntity
100
AcDbBlockBegin
2
*PAPER_SPACE
0
ENDBLK
5
1D
100
AcDbEntity
100
AcDbBlockEnd
0
ENDSEC
0
SECTION
2
ENTITIES
0
LINE
5
100
100
AcDbEntity
8
0
100
AcDbLine
10
78.329551963466173
20
-299.98999667890405
30
9.4752745383175352e-06
11
21.336553562437963
21
-299.98999500274613
31
9.4752745383175352e-06
0
LINE
5
101
100
AcDbEntity
8
0
100
AcDbLine
10
21.336553562437963
20
-299.98999500274613
30
9.4752745383175352e-06
11
21.336553562437857
21
-319.98999500274613
31
9.4752745383175352e-06
0
LINE
5
102
100
AcDbEntity
8
0
100
AcDbLine
10
21.336553562437857
20
-319.98999500274613
30
9.4752745383175352e-06
11
281.33655058220552
21
-319.9899950027463
31
9.4752745383175352e-06
0
LINE
5
103
100
AcDbEntity
8
0
100
AcDbLine
10
281.33655058220552
20
-319.9899950027463
30
9.4752745383175352e-06
11
281.33655058220552
21
-299.9899950027463
31
9.4752745383175352e-06
0
LINE
5
104
100
AcDbEntity
8
0
100
AcDbLine
10
281.33655058220552
20
-299.9899950027463
30
9.4752745383175352e-06
11
225.13655624389622
21
-299.98999500274624
31
9.4752745383175352e-06
0
LINE
5
105
100
AcDbEntity
8
0
100
AcDbLine
10
225.13655624389622
20
-299.98999500274624
30
9.4752745383175352e-06
11
225.13655624389634
21
-233.99158477783186
31
9.4752745383175352e-06
0
LINE
5
106
100
AcDbEntity
8
0
100
AcDbLine
10
225.13655624389634
20
-233.99158477783186
30
9.4752745383175352e-06
11
202.83655624389638
21
-233.99158477783189
31
9.4752745383175352e-06
0
LINE
5
107
100
AcDbEntity
8
0
100
AcDbLine
10
202.83655624389638
20
-233.99158477783189
30
9.4752745383175352e-06
11
202.83655624389638
21
-215.19158477783182
31
9.4752745383175352e-06
0
ARC
5
108
100
AcDbEntity
8
0
100
AcDbCircle
10
201.63655624389639
20
-215.19158477783196
30
9.4752745383175352e-06
40
1.1999999999999744
210
0
220
-0
230
1
100
AcDbArc
50
0
51
90.000000000002714
0
LINE
5
109
100
AcDbEntity
8
0
100
AcDbLine
10
201.63655624389634
20
-213.99158477783197
30
9.4752745383175352e-06
11
184.03655624389637
21
-213.9915847778318
31
9.4752745383175352e-06
0
ARC
5
110
100
AcDbEntity
8
0
100
AcDbCircle
10
184.03655624389643
20
-215.19158477783196
30
9.4752745383175352e-06
40
1.2000000000001521
210
0
220
0
230
1
100
AcDbArc
50
90.000000000002714
51
180
0
LINE
5
111
100
AcDbEntity
8
0
100
AcDbLine
10
182.83655624389641
20
-215.19158477783182
30
9.4752745383175352e-06
11
182.83655624389638
21
-233.9915847778318
31
9.4752745383175352e-06
0
LINE
5
112
100
AcDbEntity
8
0
100
AcDbLine
10
182.83655624389638
20
-233.9915847778318
30
9.4752745383175352e-06
11
157.83655624389635
21
-233.9915847778318
31
9.4752745383175352e-06
0
LINE
5
113
100
AcDbEntity
8
0
100
AcDbLine
10
157.83655624389635
20
-233.9915847778318
30
9.4752745383175352e-06
11
157.83655667304981
21
-264.99158616065961
31
9.4752745383175352e-06
0
ARC
5
114
100
AcDbEntity
8
0
100
AcDbCircle
10
151.33655652999866
20
-264.99158616065966
30
9.4752745383175352e-06
40
6.5000000000000027
210
0
220
0
230
1
100
AcDbArc
50
-180.00981479034994
51
0
0
LINE
5
115
100
AcDbEntity
8
0
100
AcDbLine
10
144.83655662536611
20
-264.99047270801805
30
9.4752745383175352e-06
11
144.83655681610091
21
-233.9915847778318
31
9.4752745383175352e-06
0
LINE
5
116
100
AcDbEntity
8
0
100
AcDbLine
10
144.83655681610091
20
-233.9915847778318
30
9.4752745383175352e-06
11
119.83655624389635
21
-233.9915847778318
31
9.4752745383175352e-06
0
LINE
5
117
100
AcDbEntity
8
0
100
AcDbLine
10
119.83655624389635
20
-233.9915847778318
30
9.4752745383175352e-06
11
119.83655624389635
21
-215.19158477783182
31
9.4752745383175352e-06
0
ARC
5
118
100
AcDbEntity
8
0
100
AcDbCircle
10
118.63655624389644
20
-215.19158477783196
30
9.4752745383175352e-06
40
1.1999999999999211
210
0
220
-0
230
1
100
AcDbArc
50
0
51
90.000000000003411
0
LINE
5
119
100
AcDbEntity
8
0
100
AcDbLine
10
118.63655624389637
20
-213.99158477783197
30
9.4752745383175352e-06
11
101.03655624389637
21
-213.9915847778318
31
9.4752745383175352e-06
0
ARC
5
120
100
AcDbEntity
8
0
100
AcDbCircle
10
101.03655624389644
20
-215.19158477783196
30
9.4752745383175352e-06
40
1.2000000000001521
210
0
220
0
230
1
100
AcDbArc
50
90.000000000003411
51
180
0
LINE
5
121
100
AcDbEntity
8
0
100
AcDbLine
10
99.836556243896439
20
-215.19158477783182
30
9.4752745383175352e-06
11
99.836556243896396
21
-233.99158477783189
31
9.4752745383175352e-06
0
LINE
5
122
100
AcDbEntity
8
0
100
AcDbLine
10
99.836556243896396
20
-233.99158477783189
30
9.4752745383175352e-06
11
83.536556243896428
21
-233.99158477783178
31
9.4752745383175352e-06
0
LINE
5
123
100
AcDbEntity
8
0
100
AcDbLine
10
83.536556243896428
20
-233.99158477783178
30
9.4752745383175352e-06
11
83.536556243896342
21
-255.09158477783174
31
9.4752745383175352e-06
0
LINE
5
124
100
AcDbEntity
8
0
100
AcDbLine
10
83.536556243896342
20
-255.09158477783174
30
9.4752745383175352e-06
11
77.536556243896413
21
-255.09158477783171
31
9.4752745383175352e-06
0
LINE
5
125
100
AcDbEntity
8
0
100
AcDbLine
10
77.536556243896413
20
-255.09158477783171
30
9.4752745383175352e-06
11
77.536556243896413
21
-297.98999667890405
31
9.4752745383175352e-06
0
LINE
5
126
100
AcDbEntity
8
0
100
AcDbLine
10
77.536556243896413
20
-297.98999667890405
30
9.4752745383175352e-06
11
78.329551963466173
21
-297.98999667890405
31
9.4752745383175352e-06
0
LINE
5
127
100
AcDbEntity
8
0
100
AcDbLine
10
78.329551963466173
20
-297.98999667890405
30
9.4752745383175352e-06
11
78.329551963466173
21
-299.98999667890405
31
9.4752745383175352e-06
0
CIRCLE
5
128
100
AcDbEntity
8
0
100
AcDbCircle
10
-109.83655624389642
20
-243.99158477783197
30
-9.4752745383175352e-06
40
2.6000000000000001
210
-6.6121557260025553e-39
220
-8.0136930828201712e-32
230
-1
0
CIRCLE
5
129
100
AcDbEntity
8
0
100
AcDbCircle
10
-192.83655624389644
20
-243.99158477783197
30
-9.4752745383175352e-06
40
2.6000000000000001
210
-6.6121557260025553e-39
220
-8.0136930828201712e-32
230
-1
0
CIRCLE
5
130
100
AcDbEntity
8
0
100
AcDbCircle
10
-192.83655624389641
20
-223.99158477783197
30
-9.4752745383175369e-06
40
2.6000000000000001
210
-5.6653140578760453e-24
220
-8.0136930828201712e-32
230
-1
0
CIRCLE
5
131
100
AcDbEntity
8
0
100
AcDbCircle
10
-109.83655624389642
20
-223.99158477783197
30
-9.4752745383175369e-06
40
2.6000000000000001
210
-5.6653140578760453e-24
220
-8.0136930828201712e-32
230
-1
0
ENDSEC
0
SECTION
2
OBJECTS
0
DICTIONARY
5
C
100
AcDbDictionary
3
ACAD_GROUP
350
D
3
ACAD_MLINESTYLE
350
17
0
DICTIONARY
5
D
100
AcDbDictionary
0
DICTIONARY
5
1A
330
C
100
AcDbDictionary
0
DICTIONARY
5
17
100
AcDbDictionary
0
ENDSEC
0
EOF
