0
SECTION
2
HEADER
9
$INSUNITS
70
4
9
$ACADVER
1
AC1014
9
$HANDSEED
5
FFFF
0
ENDSEC
0
SECTION
2
TABLES
0
TABLE
2
VPORT
5
8
100
AcDbSymbolTable
0
ENDTAB
0
TABLE
2
LTYPE
5
5
100
AcDbSymbolTable
0
LTYPE
5
14
100
AcDbSymbolTableRecord
100
AcDbLinetypeTableRecord
2
BYBLOCK
70
0
0
LTYPE
5
15
100
AcDbSymbolTableRecord
100
AcDbLinetypeTableRecord
2
BYLAYER
70
0
0
ENDTAB
0
TABLE
2
LAYER
5
2
100
AcDbSymbolTable
70
2
0
LAYER
5
50
100
AcDbSymbolTableRecord
100
AcDbLayerTableRecord
2
0
70
0
6
CONTINUOUS
0
ENDTAB
0
TABLE
2
STYLE
5
3
100
AcDbSymbolTable
70
1
0
STYLE
5
11
100
AcDbSymbolTableRecord
100
AcDbTextStyleTableRecord
2
STANDARD
70
0
0
ENDTAB
0
TABLE
2
VIEW
5
6
100
AcDbSymbolTable
70
0
0
ENDTAB
0
TABLE
2
UCS
5
7
100
AcDbSymbolTable
70
0
0
ENDTAB
0
TABLE
2
APPID
5
9
100
AcDbSymbolTable
70
2
0
APPID
5
12
100
AcDbSymbolTableRecord
100
AcDbRegAppTableRecord
2
ACAD
70
0
0
ENDTAB
0
TABLE
2
DIMSTYLE
5
A
100
AcDbSymbolTable
70
1
0
ENDTAB
0
TABLE
2
BLOCK_RECORD
5
1
100
AcDbSymbolTable
70
1
0
BLOCK_RECORD
5
1F
100
AcDbSymbolTableRecord
100
AcDbBlockTableRecord
2
*MODEL_SPACE
0
BLOCK_RECORD
5
1B
100
AcDbSymbolTableRecord
100
AcDbBlockTableRecord
2
*PAPER_SPACE
0
ENDTAB
0
ENDSEC
0
SECTION
2
BLOCKS
0
BLOCK
5
20
100
AcDbEntity
100
AcDbBlockBegin
2
*MODEL_SPACE
0
ENDBLK
5
21
100
AcDbEntity
100
AcDbBlockEnd
0
BLOCK
5
1C
100
AcDbEntity
100
AcDbBlockBegin
2
*PAPER_SPACE
0
ENDBLK
5
1D
100
AcDbEntity
100
AcDbBlockEnd
0
ENDSEC
0
SECTION
2
ENTITIES
0
LWPOLYLINE
5
100
100
AcDbEntity
8
0
100
AcDbPolyline
90
6
70
1
43
0.0
10
192.90435557179822
20
151.49945222691449
10
196.36845718693596
20
145.49945222691451
10
203.29666041721143
20
145.49945222691451
10
206.76076203234916
20
151.49945222691449
10
203.29666041721143
20
157.49945222691443
10
196.36845718693596
20
157.49945222691446
0
LWPOLYLINE
5
101
100
AcDbEntity
8
0
100
AcDbPolyline
90
4
70
1
43
0.0
10
196.36845718693593
20
187.49945222691449
10
199.33655880207368
20
187.49945222691449
42
0.037777304164748358
10
193.37340704233128
20
194.31187320524245
10
192.90435557179819
20
193.49945222691446
0
LWPOLYLINE
5
102
100
AcDbEntity
8
0
100
AcDbPolyline
90
6
70
1
43
0.0
10
203.2966604172114
20
171.49945222691443
10
196.36845718693593
20
171.49945222691446
10
192.90435557179822
20
165.49945222691449
10
196.36845718693596
20
159.49945222691451
10
203.29666041721143
20
159.49945222691451
10
206.76076203234916
20
165.49945222691446
0
LWPOLYLINE
5
103
100
AcDbEntity
8
0
100
AcDbPolyline
90
6
70
1
43
0.0
10
203.29666041721143
20
143.49945222691443
10
196.36845718693596
20
143.49945222691449
10
192.90435557179822
20
137.49945222691449
10
196.36845718693596
20
131.49945222691451
10
203.29666041721143
20
131.49945222691451
10
206.76076203234916
20
137.49945222691446
0
LWPOLYLINE
5
104
100
AcDbEntity
8
0
100
AcDbPolyline
90
6
70
1
43
0.0
10
179.04866041721166
20
143.49945222691443
10
172.12045718693619
20
143.49945222691449
10
168.65635557179846
20
137.49945222691449
10
172.12045718693619
20
131.49945222691451
10
179.04866041721166
20
131.49945222691451
10
182.5127620323494
20
137.49945222691446
0
LWPOLYLINE
5
105
100
AcDbEntity
8
0
100
AcDbPolyline
90
6
70
1
43
0.0
10
179.04866041721164
20
171.49945222691443
10
172.12045718693616
20
171.49945222691446
10
168.65635557179846
20
165.49945222691449
10
172.12045718693619
20
159.49945222691451
10
179.04866041721166
20
159.49945222691451
10
182.5127620323494
20
165.49945222691446
0
LWPOLYLINE
5
106
100
AcDbEntity
8
0
100
AcDbPolyline
90
6
70
1
43
0.0
10
182.51276203234937
20
193.49945222691446
10
179.04866041721164
20
199.4994522269144
10
172.12045718693616
20
199.49945222691443
10
168.65635557179843
20
193.49945222691446
10
172.12045718693616
20
187.49945222691449
10
179.04866041721164
20
187.49945222691449
0
LWPOLYLINE
5
107
100
AcDbEntity
8
0
100
AcDbPolyline
90
6
70
1
43
0.0
10
147.87245718693612
20
199.49945222691443
10
144.40835557179838
20
193.49945222691446
10
147.87245718693612
20
187.49945222691449
10
154.80066041721159
20
187.49945222691449
10
158.2647620323493
20
193.49945222691446
10
154.80066041721159
20
199.4994522269144
0
LWPOLYLINE
5
108
100
AcDbEntity
8
0
100
AcDbPolyline
90
6
70
1
43
0.0
10
158.26476203234935
20
137.49945222691446
10
154.80066041721159
20
143.49945222691443
10
147.87245718693612
20
143.49945222691446
10
144.40835557179838
20
137.49945222691449
10
147.87245718693612
20
131.49945222691451
10
154.80066041721159
20
131.49945222691451
0
LWPOLYLINE
5
109
100
AcDbEntity
8
0
100
AcDbPolyline
90
6
70
1
43
0.0
10
146.14111768533121
20
186.4994522269144
10
142.67701607019347
20
192.49945222691437
10
135.748812839918
20
192.49945222691437
10
132.28471122478027
20
186.4994522269144
10
135.748812839918
20
180.4994522269144
10
142.67701607019347
20
180.4994522269144
0
LWPOLYLINE
5
110
100
AcDbEntity
8
0
100
AcDbPolyline
90
6
70
1
43
0.0
10
130.55266041721154
20
199.4994522269144
10
123.62445718693607
20
199.49945222691443
10
120.16035557179833
20
193.49945222691446
10
123.62445718693607
20
187.49945222691449
10
130.55266041721154
20
187.49945222691449
10
134.01676203234928
20
193.49945222691446
0
LWPOLYLINE
5
111
100
AcDbEntity
8
0
100
AcDbPolyline
90
6
70
1
43
0.0
10
130.55266041721154
20
171.49945222691443
10
123.62445718693607
20
171.49945222691446
10
120.16035557179833
20
165.49945222691449
10
123.62445718693607
20
159.49945222691451
10
130.55266041721154
20
159.49945222691451
10
134.01676203234928
20
165.49945222691446
0
LWPOLYLINE
5
112
100
AcDbEntity
8
0
100
AcDbPolyline
90
6
70
1
43
0.0
10
118.42901607019371
20
164.49945222691437
10
111.50081283991824
20
164.49945222691443
10
108.0367112247805
20
158.49945222691443
10
111.50081283991824
20
152.49945222691446
10
118.42901607019371
20
152.49945222691446
10
121.89311768533145
20
158.4994522269144
0
LWPOLYLINE
5
113
100
AcDbEntity
8
0
100
AcDbPolyline
90
4
70
1
43
0.0
10
93.241808608962543
20
166.49945222691431
42
-0.03778163359037736
10
96.160551721881532
20
175.07079590279702
10
97.6451176853314
20
172.49945222691437
10
94.181016070193664
20
166.49945222691443
0
LWPOLYLINE
5
114
100
AcDbEntity
8
0
100
AcDbPolyline
90
5
70
1
43
0.0
10
92.761820219643965
20
138.49945222691451
42
-0.050475624059747752
10
91.344892714191275
20
150.4994522269144
10
94.181016070193664
20
150.4994522269144
10
97.6451176853314
20
144.49945222691443
10
94.181016070193664
20
138.49945222691443
0
LWPOLYLINE
5
115
100
AcDbEntity
8
0
100
AcDbPolyline
90
6
70
1
43
0.0
10
158.26476203234935
20
109.49945222691446
10
154.80066041721159
20
115.49945222691441
10
147.87245718693612
20
115.49945222691446
10
144.40835557179838
20
109.49945222691447
10
147.87245718693612
20
103.49945222691449
10
154.80066041721159
20
103.49945222691449
0
LWPOLYLINE
5
116
100
AcDbEntity
8
0
100
AcDbPolyline
90
6
70
1
43
0.0
10
142.67701607019347
20
136.49945222691437
10
135.748812839918
20
136.4994522269144
10
132.28471122478027
20
130.4994522269144
10
135.748812839918
20
124.49945222691446
10
142.67701607019347
20
124.49945222691443
10
146.14111768533121
20
130.4994522269144
0
LWPOLYLINE
5
117
100
AcDbEntity
8
0
100
AcDbPolyline
90
6
70
1
43
0.0
10
166.92501607019355
20
110.49945222691447
10
170.38911768533129
20
116.49945222691441
10
166.92501607019355
20
122.49945222691439
10
159.99681283991808
20
122.4994522269144
10
156.53271122478031
20
116.49945222691443
10
159.99681283991808
20
110.49945222691446
0
LWPOLYLINE
5
118
100
AcDbEntity
8
0
100
AcDbPolyline
90
6
70
1
43
0.0
10
191.1730160701936
20
110.49945222691447
10
194.63711768533133
20
116.49945222691441
10
191.1730160701936
20
122.49945222691439
10
184.24481283991813
20
122.49945222691443
10
180.78071122478039
20
116.49945222691444
10
184.24481283991813
20
110.49945222691447
0
LWPOLYLINE
5
119
100
AcDbEntity
8
0
100
AcDbPolyline
90
6
70
1
43
0.0
10
159.99681283991808
20
108.49945222691439
10
156.53271122478031
20
102.4994522269144
10
159.99681283991808
20
96.499452226914443
10
166.92501607019355
20
96.499452226914443
10
170.38911768533129
20
102.49945222691443
10
166.92501607019355
20
108.49945222691439
0
LWPOLYLINE
5
120
100
AcDbEntity
8
0
100
AcDbPolyline
90
6
70
1
43
0.0
10
132.28471122478027
20
102.49945222691443
10
135.748812839918
20
96.499452226914443
10
142.67701607019347
20
96.499452226914443
10
146.14111768533121
20
102.4994522269144
10
142.67701607019347
20
108.49945222691439
10
135.748812839918
20
108.4994522269144
0
LWPOLYLINE
5
121
100
AcDbEntity
8
0
100
AcDbPolyline
90
6
70
1
43
0.0
10
109.76876203234951
20
123.49945222691446
10
106.30466041721178
20
129.49945222691443
10
99.376457186936307
20
129.49945222691446
10
97.173924197052145
20
125.68455318308878
42
0.039442132748760905
10
101.8997304248407
20
117.4994522269145
10
106.30466041721178
20
117.4994522269145
0
LWPOLYLINE
5
122
100
AcDbEntity
8
0
100
AcDbPolyline
90
4
70
1
43
0.0
10
106.30466041721178
20
115.49945222691441
10
103.33655880207374
20
115.49945222691446
42
0.037777304164749281
10
109.29971056181643
20
108.68703124858648
10
109.76876203234951
20
109.49945222691447
0
LWPOLYLINE
5
123
100
AcDbEntity
8
0
100
AcDbPolyline
90
5
70
1
43
0.0
10
133.30812159934425
20
94.272050992652225
10
134.01676203234928
20
95.499452226914457
10
130.55266041721154
20
101.49945222691443
10
123.62445718693607
20
101.49945222691446
10
122.20728977709371
20
99.044846270236704
42
0.050475686318218013
0
LWPOLYLINE
5
124
100
AcDbEntity
8
0
100
AcDbPolyline
90
4
70
1
43
0.0
10
159.99681283991836
20
94.499452226914485
10
158.51347333831373
20
91.930232845261401
42
0.037771994852443709
10
167.39355284186306
20
93.687922733169287
10
166.92501607019383
20
94.499452226914471
0
LWPOLYLINE
5
125
100
AcDbEntity
8
0
100
AcDbPolyline
90
6
70
1
43
0.0
10
179.04866041721166
20
103.49945222691451
10
182.5127620323494
20
109.49945222691447
10
179.04866041721166
20
115.49945222691443
10
172.12045718693619
20
115.49945222691447
10
168.65635557179846
20
109.49945222691449
10
172.12045718693619
20
103.49945222691451
0
LWPOLYLINE
5
126
100
AcDbEntity
8
0
100
AcDbPolyline
90
4
70
1
43
0.0
10
192.90435557179822
20
109.49945222691449
10
193.37340704233131
20
108.68703124858648
42
0.037777304164749281
10
199.33655880207399
20
115.49945222691443
10
196.36845718693596
20
115.49945222691447
0
LWPOLYLINE
5
127
100
AcDbEntity
8
0
100
AcDbPolyline
90
6
70
1
43
0.0
10
158.26476203234935
20
123.49945222691446
10
154.80066041721159
20
129.4994522269144
10
147.87245718693612
20
129.49945222691443
10
144.40835557179838
20
123.49945222691447
10
147.87245718693612
20
117.49945222691449
10
154.80066041721159
20
117.49945222691449
0
LWPOLYLINE
5
128
100
AcDbEntity
8
0
100
AcDbPolyline
90
6
70
1
43
0.0
10
146.14111768533121
20
116.4994522269144
10
142.67701607019347
20
122.49945222691437
10
135.748812839918
20
122.4994522269144
10
132.28471122478027
20
116.49945222691443
10
135.748812839918
20
110.49945222691446
10
142.67701607019347
20
110.49945222691446
0
LWPOLYLINE
5
129
100
AcDbEntity
8
0
100
AcDbPolyline
90
6
70
1
43
0.0
10
106.30466041721178
20
143.49945222691443
10
99.376457186936307
20
143.49945222691449
10
95.912355571798571
20
137.49945222691449
10
99.376457186936307
20
131.49945222691451
10
106.30466041721178
20
131.49945222691451
10
109.76876203234951
20
137.49945222691446
0
LWPOLYLINE
5
130
100
AcDbEntity
8
0
100
AcDbPolyline
90
6
70
1
43
0.0
10
106.30466041721178
20
171.49945222691443
10
99.376457186936307
20
171.49945222691443
10
95.912355571798571
20
165.49945222691449
10
99.376457186936307
20
159.49945222691451
10
106.30466041721178
20
159.49945222691451
10
109.76876203234951
20
165.49945222691446
0
LWPOLYLINE
5
131
100
AcDbEntity
8
0
100
AcDbPolyline
90
6
70
1
43
0.0
10
118.42901607019371
20
178.4994522269144
10
111.50081283991824
20
178.49945222691443
10
108.0367112247805
20
172.49945222691437
10
111.50081283991824
20
166.49945222691446
10
118.42901607019371
20
166.49945222691443
10
121.89311768533145
20
172.4994522269144
0
LWPOLYLINE
5
132
100
AcDbEntity
8
0
100
AcDbPolyline
90
6
70
1
43
0.0
10
134.01676203234928
20
151.49945222691446
10
130.55266041721154
20
157.4994522269144
10
123.62445718693607
20
157.49945222691446
10
120.16035557179833
20
151.49945222691446
10
123.62445718693607
20
145.49945222691449
10
130.55266041721154
20
145.49945222691449
0
LWPOLYLINE
5
133
100
AcDbEntity
8
0
100
AcDbPolyline
90
5
70
1
43
0.0
10
118.42901607019371
20
194.49945222691443
10
121.89311768533145
20
200.49945222691437
10
120.47575705137803
20
202.95439285756967
42
0.050475499559943675
10
110.79178951117456
20
195.72751665604994
10
111.50081283991824
20
194.49945222691443
0
LWPOLYLINE
5
134
100
AcDbEntity
8
0
100
AcDbPolyline
90
4
70
1
43
0.0
10
142.67701607019347
20
208.49945222691443
10
144.16040874560707
20
211.06876370830622
42
0.037772553128331256
10
135.28017776992414
20
209.31115197835254
10
135.748812839918
20
208.49945222691443
0
LWPOLYLINE
5
135
100
AcDbEntity
8
0
100
AcDbPolyline
90
6
70
1
43
0.0
10
135.748812839918
20
150.49945222691437
10
132.28471122478027
20
144.4994522269144
10
135.748812839918
20
138.49945222691443
10
142.67701607019347
20
138.49945222691443
10
146.14111768533121
20
144.4994522269144
10
142.67701607019347
20
150.49945222691437
0
LWPOLYLINE
5
136
100
AcDbEntity
8
0
100
AcDbPolyline
90
6
70
1
43
0.0
10
147.87245718693612
20
185.49945222691446
10
144.40835557179838
20
179.49945222691446
10
147.87245718693612
20
173.49945222691449
10
154.80066041721159
20
173.49945222691449
10
158.2647620323493
20
179.49945222691446
10
154.80066041721159
20
185.4994522269144
0
LWPOLYLINE
5
137
100
AcDbEntity
8
0
100
AcDbPolyline
90
5
70
1
43
0.0
10
179.04866041721164
20
201.49945222691451
10
180.465827827054
20
203.95405818359222
42
0.050475686318217874
10
169.36499600480346
20
208.7268534611766
10
168.65635557179843
20
207.49945222691449
10
172.12045718693616
20
201.49945222691451
0
LWPOLYLINE
5
138
100
AcDbEntity
8
0
100
AcDbPolyline
90
6
70
1
43
0.0
10
172.12045718693616
20
173.49945222691449
10
179.04866041721164
20
173.49945222691449
10
182.51276203234937
20
179.49945222691446
10
179.04866041721164
20
185.4994522269144
10
172.12045718693616
20
185.49945222691446
10
168.65635557179843
20
179.49945222691446
0
LWPOLYLINE
5
139
100
AcDbEntity
8
0
100
AcDbPolyline
90
6
70
1
43
0.0
10
166.92501607019355
20
138.49945222691443
10
170.38911768533129
20
144.49945222691443
10
166.92501607019355
20
150.4994522269144
10
159.99681283991808
20
150.49945222691437
10
156.53271122478031
20
144.4994522269144
10
159.99681283991808
20
138.49945222691443
0
LWPOLYLINE
5
140
100
AcDbEntity
8
0
100
AcDbPolyline
90
6
70
1
43
0.0
10
191.1730160701936
20
136.49945222691437
10
184.24481283991813
20
136.4994522269144
10
180.78071122478039
20
130.49945222691443
10
184.24481283991813
20
124.49945222691446
10
191.1730160701936
20
124.49945222691446
10
194.63711768533133
20
130.4994522269144
0
LWPOLYLINE
5
141
100
AcDbEntity
8
0
100
AcDbPolyline
90
5
70
1
43
0.0
10
209.91129738450385
20
164.4994522269144
10
208.49281283991789
20
164.4994522269144
10
205.02871122478015
20
158.49945222691443
10
208.49281283991789
20
152.49945222691446
10
211.32822488995643
20
152.49945222691446
42
0.050475624059747808
0
LWPOLYLINE
5
142
100
AcDbEntity
8
0
100
AcDbPolyline
90
6
70
1
43
0.0
10
194.6371176853313
20
186.4994522269144
10
191.17301607019357
20
192.49945222691437
10
184.2448128399181
20
192.49945222691437
10
180.78071122478036
20
186.4994522269144
10
184.2448128399181
20
180.4994522269144
10
191.17301607019357
20
180.4994522269144
0
LWPOLYLINE
5
143
100
AcDbEntity
8
0
100
AcDbPolyline
90
6
70
1
43
0.0
10
184.24481283991813
20
164.4994522269144
10
180.78071122478039
20
158.49945222691443
10
184.24481283991813
20
152.49945222691446
10
191.1730160701936
20
152.49945222691446
10
194.63711768533133
20
158.4994522269144
10
191.1730160701936
20
164.49945222691437
0
LWPOLYLINE
5
144
100
AcDbEntity
8
0
100
AcDbPolyline
90
5
70
1
43
0.0
10
184.2448128399181
20
194.49945222691443
10
191.17301607019357
20
194.49945222691443
10
191.881793219429
20
195.72709026063407
42
0.050475561806989692
10
182.19788890286623
20
202.95407596871166
10
180.78071122478036
20
200.4994522269144
0
LWPOLYLINE
5
145
100
AcDbEntity
8
0
100
AcDbPolyline
90
4
70
1
43
0.0
10
208.49281283991789
20
166.49945222691443
10
209.43130899518511
20
166.49945222691443
42
0.037778420707878721
10
206.51286837379104
20
175.07008781541796
10
205.02871122478012
20
172.4994522269144
0
LWPOLYLINE
5
146
100
AcDbEntity
8
0
100
AcDbPolyline
90
4
70
1
43
0.0
10
209.43130899518513
20
136.49945222691446
42
-0.037778420707878402
10
206.51286837379104
20
127.92881663841088
10
205.02871122478015
20
130.49945222691443
10
208.49281283991789
20
136.4994522269144
0
LWPOLYLINE
5
147
100
AcDbEntity
8
0
100
AcDbPolyline
90
6
70
1
43
0.0
10
168.65635557179846
20
151.49945222691449
10
172.12045718693619
20
145.49945222691451
10
179.04866041721166
20
145.49945222691451
10
182.5127620323494
20
151.49945222691449
10
179.04866041721166
20
157.49945222691443
10
172.12045718693619
20
157.49945222691446
0
LWPOLYLINE
5
148
100
AcDbEntity
8
0
100
AcDbPolyline
90
6
70
1
43
0.0
10
166.92501607019355
20
166.49945222691443
10
170.38911768533126
20
172.4994522269144
10
166.92501607019352
20
178.4994522269144
10
159.99681283991802
20
178.4994522269144
10
156.53271122478031
20
172.4994522269144
10
159.99681283991808
20
166.49945222691443
0
LWPOLYLINE
5
149
100
AcDbEntity
8
0
100
AcDbPolyline
90
6
70
1
43
0.0
10
166.92501607019352
20
194.49945222691443
10
170.38911768533126
20
200.49945222691437
10
166.92501607019352
20
206.49945222691434
10
159.99681283991802
20
206.4994522269144
10
156.53271122478031
20
200.4994522269144
10
159.99681283991802
20
194.49945222691443
0
LWPOLYLINE
5
150
100
AcDbEntity
8
0
100
AcDbPolyline
90
6
70
1
43
0.0
10
146.61010926201951
20
211.31300148412976
42
-0.039448372653643642
10
156.06300834212817
20
211.31300148412976
10
158.2647620323493
20
207.49945222691446
10
154.80066041721159
20
201.49945222691451
10
147.87245718693612
20
201.49945222691451
10
144.40835557179838
20
207.49945222691449
0
LWPOLYLINE
5
151
100
AcDbEntity
8
0
100
AcDbPolyline
90
6
70
1
43
0.0
10
147.87245718693612
20
157.49945222691446
10
144.40835557179838
20
151.49945222691446
10
147.87245718693612
20
145.49945222691449
10
154.80066041721159
20
145.49945222691449
10
158.26476203234935
20
151.49945222691446
10
154.80066041721159
20
157.4994522269144
0
LWPOLYLINE
5
152
100
AcDbEntity
8
0
100
AcDbPolyline
90
6
70
1
43
0.0
10
142.67701607019347
20
178.4994522269144
10
135.748812839918
20
178.4994522269144
10
132.28471122478027
20
172.4994522269144
10
135.748812839918
20
166.49945222691443
10
142.67701607019347
20
166.49945222691443
10
146.14111768533121
20
172.4994522269144
0
LWPOLYLINE
5
153
100
AcDbEntity
8
0
100
AcDbPolyline
90
5
70
1
43
0.0
10
134.01676203234928
20
207.49945222691446
10
133.30812159934425
20
208.72685346117669
42
0.050475686318218013
10
122.20728977709371
20
203.95405818359222
10
123.62445718693607
20
201.49945222691451
10
130.55266041721154
20
201.49945222691451
0
LWPOLYLINE
5
154
100
AcDbEntity
8
0
100
AcDbPolyline
90
6
70
1
43
0.0
10
130.55266041721154
20
185.4994522269144
10
123.62445718693607
20
185.49945222691446
10
120.16035557179833
20
179.49945222691446
10
123.62445718693607
20
173.49945222691449
10
130.55266041721154
20
173.49945222691449
10
134.01676203234928
20
179.49945222691446
0
LWPOLYLINE
5
155
100
AcDbEntity
8
0
100
AcDbPolyline
90
6
70
1
43
0.0
10
111.50081283991824
20
150.4994522269144
10
108.0367112247805
20
144.49945222691443
10
111.50081283991824
20
138.49945222691443
10
118.42901607019371
20
138.49945222691443
10
121.89311768533145
20
144.4994522269144
10
118.42901607019371
20
150.49945222691437
0
LWPOLYLINE
5
156
100
AcDbEntity
8
0
100
AcDbPolyline
90
6
70
1
43
0.0
10
106.30466041721178
20
185.4994522269144
10
101.8997304248407
20
185.4994522269144
42
0.039442132748760551
10
97.173924197052202
20
177.31435127074013
10
99.376457186936307
20
173.49945222691446
10
106.30466041721178
20
173.49945222691446
10
109.76876203234951
20
179.49945222691451
0
LWPOLYLINE
5
157
100
AcDbEntity
8
0
100
AcDbPolyline
90
6
70
1
43
0.0
10
109.76876203234951
20
151.49945222691449
10
106.30466041721178
20
157.49945222691443
10
99.376457186936307
20
157.49945222691446
10
95.912355571798571
20
151.49945222691449
10
99.376457186936307
20
145.49945222691451
10
106.30466041721178
20
145.49945222691451
0
LWPOLYLINE
5
158
100
AcDbEntity
8
0
100
AcDbPolyline
90
6
70
1
43
0.0
10
118.42901607019371
20
136.49945222691437
10
111.50081283991824
20
136.4994522269144
10
108.0367112247805
20
130.4994522269144
10
111.50081283991824
20
124.49945222691446
10
118.42901607019371
20
124.49945222691443
10
121.89311768533145
20
130.4994522269144
0
LWPOLYLINE
5
159
100
AcDbEntity
8
0
100
AcDbPolyline
90
6
70
1
43
0.0
10
134.01676203234928
20
123.49945222691446
10
130.55266041721154
20
129.49945222691443
10
123.62445718693607
20
129.49945222691446
10
120.16035557179833
20
123.49945222691447
10
123.62445718693607
20
117.4994522269145
10
130.55266041721154
20
117.4994522269145
0
LWPOLYLINE
5
160
100
AcDbEntity
8
0
100
AcDbPolyline
90
6
70
1
43
0.0
10
182.5127620323494
20
123.49945222691447
10
179.04866041721166
20
129.49945222691443
10
172.12045718693619
20
129.49945222691446
10
168.65635557179846
20
123.49945222691447
10
172.12045718693619
20
117.4994522269145
10
179.04866041721166
20
117.4994522269145
0
LWPOLYLINE
5
161
100
AcDbEntity
8
0
100
AcDbPolyline
90
5
70
1
43
0.0
10
168.65635557179846
20
95.499452226914485
10
169.36499600480349
20
94.272050992652339
42
0.050475686318217597
10
180.46582782705403
20
99.04484627023669
10
179.04866041721166
20
101.49945222691443
10
172.12045718693619
20
101.49945222691446
0
LWPOLYLINE
5
162
100
AcDbEntity
8
0
100
AcDbPolyline
90
6
70
1
43
0.0
10
156.06300834212817
20
91.685902969699157
10
158.26476203234935
20
95.499452226914457
10
154.80066041721159
20
101.49945222691441
10
147.87245718693612
20
101.49945222691444
10
144.40835557179838
20
95.499452226914471
10
146.61010926201953
20
91.685902969699171
42
0.039448372653643808
0
LWPOLYLINE
5
163
100
AcDbEntity
8
0
100
AcDbPolyline
90
6
70
1
43
0.0
10
121.89311768533145
20
116.49945222691441
10
118.42901607019371
20
122.49945222691437
10
111.50081283991824
20
122.4994522269144
10
108.0367112247805
20
116.49945222691443
10
111.50081283991824
20
110.49945222691446
10
118.42901607019371
20
110.49945222691446
0
LWPOLYLINE
5
164
100
AcDbEntity
8
0
100
AcDbPolyline
90
5
70
1
43
0.0
10
120.47575705137808
20
100.04451159625923
42
-0.050475499559943675
10
110.79178951117463
20
107.27138779777901
10
111.50081283991824
20
108.4994522269144
10
118.42901607019371
20
108.49945222691439
10
121.89311768533145
20
102.4994522269144
0
LWPOLYLINE
5
165
100
AcDbEntity
8
0
100
AcDbPolyline
90
4
70
1
43
0.0
10
144.16040874560736
20
91.930140745522664
42
-0.037772553128331283
10
135.28017776992439
20
93.687752475476316
10
135.74881283991829
20
94.499452226914485
10
142.67701607019376
20
94.499452226914471
0
LWPOLYLINE
5
166
100
AcDbEntity
8
0
100
AcDbPolyline
90
5
70
1
43
0.0
10
184.24481283991813
20
108.4994522269144
10
180.78071122478039
20
102.49945222691443
10
182.19788890286625
20
100.04482848511721
42
0.05047556180698997
10
191.881793219429
20
107.27181419319487
10
191.1730160701936
20
108.49945222691439
0
LWPOLYLINE
5
167
100
AcDbEntity
8
0
100
AcDbPolyline
90
6
70
1
43
0.0
10
205.49919340709556
20
125.68455318308885
42
-0.039442132748760933
10
200.77338717930701
20
117.4994522269145
10
196.36845718693596
20
117.4994522269145
10
192.90435557179822
20
123.49945222691447
10
196.36845718693596
20
129.49945222691446
10
203.29666041721143
20
129.49945222691443
0
LWPOLYLINE
5
168
100
AcDbEntity
8
0
100
AcDbPolyline
90
6
70
1
43
0.0
10
166.92501607019355
20
124.49945222691446
10
170.38911768533129
20
130.4994522269144
10
166.92501607019355
20
136.49945222691437
10
159.99681283991808
20
136.4994522269144
10
156.53271122478031
20
130.4994522269144
10
159.99681283991808
20
124.49945222691443
0
LWPOLYLINE
5
169
100
AcDbEntity
8
0
100
AcDbPolyline
90
6
70
1
43
0.0
10
130.55266041721154
20
115.49945222691441
10
123.62445718693607
20
115.49945222691446
10
120.16035557179833
20
109.49945222691447
10
123.62445718693607
20
103.49945222691449
10
130.55266041721154
20
103.49945222691449
10
134.01676203234928
20
109.49945222691447
0
LWPOLYLINE
5
170
100
AcDbEntity
8
0
100
AcDbPolyline
90
4
70
1
43
0.0
10
94.181016070193664
20
136.49945222691437
10
93.241808608962629
20
136.49945222691437
42
0.037781633590376645
10
96.160551721881689
20
127.9281085510319
10
97.6451176853314
20
130.4994522269144
0
LWPOLYLINE
5
171
100
AcDbEntity
8
0
100
AcDbPolyline
90
5
70
1
43
0.0
10
94.181016070193664
20
164.49945222691434
10
92.76182021964388
20
164.49945222691434
42
0.050475624059747398
10
91.344892714191417
20
152.49945222691446
10
94.181016070193664
20
152.49945222691446
10
97.6451176853314
20
158.4994522269144
0
LWPOLYLINE
5
172
100
AcDbEntity
8
0
100
AcDbPolyline
90
6
70
1
43
0.0
10
121.89311768533145
20
186.4994522269144
10
118.42901607019371
20
192.49945222691437
10
111.50081283991824
20
192.4994522269144
10
108.0367112247805
20
186.49945222691434
10
111.50081283991824
20
180.49945222691446
10
118.42901607019371
20
180.4994522269144
0
LWPOLYLINE
5
173
100
AcDbEntity
8
0
100
AcDbPolyline
90
6
70
1
43
0.0
10
130.55266041721154
20
143.49945222691443
10
123.62445718693607
20
143.49945222691446
10
120.16035557179833
20
137.49945222691449
10
123.62445718693607
20
131.49945222691451
10
130.55266041721154
20
131.49945222691451
10
134.01676203234928
20
137.49945222691446
0
LWPOLYLINE
5
174
100
AcDbEntity
8
0
100
AcDbPolyline
90
4
70
1
43
0.0
10
103.3365588020738
20
187.49945222691434
42
-0.037777304164749601
10
109.2997105618165
20
194.31187320524236
10
109.76876203234951
20
193.49945222691449
10
106.30466041721178
20
187.49945222691446
0
LWPOLYLINE
5
175
100
AcDbEntity
8
0
100
AcDbPolyline
90
6
70
1
43
0.0
10
142.67701607019347
20
194.49945222691443
10
146.14111768533121
20
200.49945222691437
10
142.67701607019347
20
206.49945222691434
10
135.748812839918
20
206.4994522269144
10
132.28471122478027
20
200.4994522269144
10
135.748812839918
20
194.49945222691443
0
LWPOLYLINE
5
176
100
AcDbEntity
8
0
100
AcDbPolyline
90
6
70
1
43
0.0
10
142.67701607019347
20
164.49945222691437
10
135.748812839918
20
164.4994522269144
10
132.28471122478027
20
158.49945222691443
10
135.748812839918
20
152.49945222691446
10
142.67701607019347
20
152.49945222691446
10
146.14111768533121
20
158.4994522269144
0
LWPOLYLINE
5
177
100
AcDbEntity
8
0
100
AcDbPolyline
90
6
70
1
43
0.0
10
147.87245718693612
20
171.49945222691446
10
144.40835557179838
20
165.49945222691449
10
147.87245718693612
20
159.49945222691451
10
154.80066041721159
20
159.49945222691451
10
158.26476203234935
20
165.49945222691446
10
154.80066041721159
20
171.49945222691443
0
LWPOLYLINE
5
178
100
AcDbEntity
8
0
100
AcDbPolyline
90
4
70
1
43
0.0
10
166.92501607019352
20
208.49945222691443
10
167.39355284186274
20
209.31098172065987
42
0.03777199485244296
10
158.51347333831339
20
211.06867160856754
10
159.99681283991802
20
208.49945222691443
0
LWPOLYLINE
5
179
100
AcDbEntity
8
0
100
AcDbPolyline
90
6
70
1
43
0.0
10
166.92501607019352
20
180.4994522269144
10
170.38911768533126
20
186.4994522269144
10
166.92501607019352
20
192.49945222691437
10
159.99681283991802
20
192.49945222691437
10
156.53271122478031
20
186.4994522269144
10
159.99681283991802
20
180.4994522269144
0
LWPOLYLINE
5
180
100
AcDbEntity
8
0
100
AcDbPolyline
90
6
70
1
43
0.0
10
166.92501607019355
20
152.49945222691446
10
170.38911768533129
20
158.4994522269144
10
166.92501607019355
20
164.49945222691437
10
159.99681283991808
20
164.4994522269144
10
156.53271122478031
20
158.49945222691443
10
159.99681283991808
20
152.49945222691446
0
LWPOLYLINE
5
181
100
AcDbEntity
8
0
100
AcDbPolyline
90
6
70
1
43
0.0
10
184.24481283991813
20
138.49945222691443
10
191.1730160701936
20
138.49945222691443
10
194.63711768533133
20
144.49945222691443
10
191.1730160701936
20
150.4994522269144
10
184.24481283991813
20
150.4994522269144
10
180.78071122478039
20
144.49945222691443
0
LWPOLYLINE
5
182
100
AcDbEntity
8
0
100
AcDbPolyline
90
5
70
1
43
0.0
10
208.49281283991789
20
138.49945222691443
10
209.91129738450385
20
138.49945222691443
42
0.050475624059747669
10
211.32822488995632
20
150.4994522269144
10
208.49281283991789
20
150.4994522269144
10
205.02871122478015
20
144.49945222691443
0
LWPOLYLINE
5
183
100
AcDbEntity
8
0
100
AcDbPolyline
90
6
70
1
43
0.0
10
196.36845718693593
20
173.49945222691449
10
203.2966604172114
20
173.49945222691449
10
205.4991934070955
20
177.3143512707401
42
0.039442132748760551
10
200.77338717930701
20
185.4994522269144
10
196.36845718693593
20
185.49945222691446
10
192.90435557179819
20
179.49945222691446
0
LWPOLYLINE
5
184
100
AcDbEntity
8
0
100
AcDbPolyline
90
6
70
1
43
0.0
10
184.24481283991813
20
166.49945222691443
10
191.1730160701936
20
166.49945222691443
10
194.6371176853313
20
172.4994522269144
10
191.17301607019357
20
178.4994522269144
10
184.2448128399181
20
178.4994522269144
10
180.78071122478036
20
172.4994522269144
0
LWPOLYLINE
5
185
100
AcDbEntity
8
0
100
AcDbPolyline
90
4
70
1
43
0.0
10
271.33655880207266
20
-116.50054264744377
10
271.33655880207266
20
-69.600542647443746
10
244.13655880207267
20
-69.60054264744376
10
244.13655880207267
20
-116.50054264744377
0
LWPOLYLINE
5
186
100
AcDbEntity
8
0
100
AcDbPolyline
90
4
70
1
43
0.0
10
-18.663441197927852
20
471.49945222691474
10
321.33655880207237
20
471.4994522269148
10
321.33655880207243
20
-135.50054264744375
10
-18.663441197927852
20
-135.50054264744381
0
LWPOLYLINE
5
187
100
AcDbEntity
8
0
100
AcDbPolyline
90
4
70
1
43
0.0
10
265.01155880207432
20
-46.05054264744372
10
250.46155880207431
20
-46.05054264744372
10
250.46155880207431
20
-62.300542647443685
10
265.01155880207375
20
-62.300542647443685
0
CIRCLE
5
188
100
AcDbEntity
8
0
100
AcDbCircle
10
203.83655880207385
20
203.99945222691454
30
4.9357965714591501e-07
40
2.5999999999999091
210
2.5493707614226459e-21
220
4.988943916298302e-24
230
1
0
CIRCLE
5
189
100
AcDbEntity
8
0
100
AcDbCircle
10
203.83655880207388
20
98.999452226914542
30
4.9357965714591501e-07
40
2.6000000000001933
210
2.5493707614226459e-21
220
4.988943916298302e-24
230
1
0
CIRCLE
5
190
100
AcDbEntity
8
0
100
AcDbCircle
10
98.836558802073853
20
98.999452226914542
30
4.9357965270502291e-07
40
2.5999999999999091
210
2.5493707614226459e-21
220
4.988943916298302e-24
230
1
0
CIRCLE
5
191
100
AcDbEntity
8
0
100
AcDbCircle
10
98.836558802073853
20
203.99945222691451
30
4.9357965270502291e-07
40
2.5999999999999091
210
2.5493707614226459e-21
220
4.988943916298302e-24
230
1
0
CIRCLE
5
192
100
AcDbEntity
8
0
100
AcDbCircle
10
8.6634411979278667
20
369.49944284144885
30
-4.935796360624807e-07
40
2.6000000000000156
210
1.2939712129908824e-16
220
-4.9889438956468183e-24
230
-1
0
CIRCLE
5
193
100
AcDbEntity
8
0
100
AcDbCircle
10
8.6634411979278454
20
169.49944284144888
30
-4.9357963162158765e-07
40
2.6000000000000156
210
1.2939712129908824e-16
220
-4.9889438956468183e-24
230
-1
0
CIRCLE
5
194
100
AcDbEntity
8
0
100
AcDbCircle
10
-311.33655880207232
20
-30.500557158551057
30
-4.9357891839355903e-07
40
2.6000000000000156
210
4.9403543851665261e-15
220
-4.9889431278442118e-24
230
-1
0
CIRCLE
5
195
100
AcDbEntity
8
0
100
AcDbCircle
10
8.6634411979278241
20
-30.500557158551107
30
-4.9357962718069449e-07
40
2.6000000000000156
210
1.2939712129908824e-16
220
-4.9889438956468183e-24
230
-1
0
CIRCLE
5
196
100
AcDbEntity
8
0
100
AcDbCircle
10
-311.33655880207232
20
169.49944284144891
30
-4.9357892283445208e-07
40
2.6000000000000156
210
4.9403543851665261e-15
220
-4.9889431278442118e-24
230
-1
0
CIRCLE
5
197
100
AcDbEntity
8
0
100
AcDbCircle
10
-311.33655880207226
20
369.49944284144891
30
-4.9357892727534524e-07
40
2.6000000000000156
210
4.9403543851665261e-15
220
-4.9889431278442118e-24
230
-1
0
CIRCLE
5
198
100
AcDbEntity
8
0
100
AcDbCircle
10
270.18655880207581
20
-54.175542647443777
30
4.9357965270502291e-07
40
1.6499999999999204
210
2.5493707614226459e-21
220
4.988943916298302e-24
230
1
0
CIRCLE
5
199
100
AcDbEntity
8
0
100
AcDbCircle
10
245.28655880207597
20
-54.175542647443642
30
4.9357965270502291e-07
40
1.6499999999999204
210
2.5493707614226459e-21
220
4.988943916298302e-24
230
1
0
ENDSEC
0
SECTION
2
OBJECTS
0
DICTIONARY
5
C
100
AcDbDictionary
3
ACAD_GROUP
350
D
3
ACAD_MLINESTYLE
350
17
0
DICTIONARY
5
D
100
AcDbDictionary
0
DICTIONARY
5
1A
330
C
100
AcDbDictionary
0
DICTIONARY
5
17
100
AcDbDictionary
0
ENDSEC
0
EOF
