0
SECTION
2
HEADER
9
$INSUNITS
70
4
9
$ACADVER
1
AC1014
9
$HANDSEED
5
FFFF
0
ENDSEC
0
SECTION
2
TABLES
0
TABLE
2
VPORT
5
8
100
AcDbSymbolTable
0
ENDTAB
0
TABLE
2
LTYPE
5
5
100
AcDbSymbolTable
0
LTYPE
5
14
100
AcDbSymbolTableRecord
100
AcDbLinetypeTableRecord
2
BYBLOCK
70
0
0
LTYPE
5
15
100
AcDbSymbolTableRecord
100
AcDbLinetypeTableRecord
2
BYLAYER
70
0
0
ENDTAB
0
TABLE
2
LAYER
5
2
100
AcDbSymbolTable
70
2
0
LAYER
5
50
100
AcDbSymbolTableRecord
100
AcDbLayerTableRecord
2
0
70
0
6
CONTINUOUS
0
ENDTAB
0
TABLE
2
STYLE
5
3
100
AcDbSymbolTable
70
1
0
STYLE
5
11
100
AcDbSymbolTableRecord
100
AcDbTextStyleTableRecord
2
STANDARD
70
0
0
ENDTAB
0
TABLE
2
VIEW
5
6
100
AcDbSymbolTable
70
0
0
ENDTAB
0
TABLE
2
UCS
5
7
100
AcDbSymbolTable
70
0
0
ENDTAB
0
TABLE
2
APPID
5
9
100
AcDbSymbolTable
70
2
0
APPID
5
12
100
AcDbSymbolTableRecord
100
AcDbRegAppTableRecord
2
ACAD
70
0
0
ENDTAB
0
TABLE
2
DIMSTYLE
5
A
100
AcDbSymbolTable
70
1
0
ENDTAB
0
TABLE
2
BLOCK_RECORD
5
1
100
AcDbSymbolTable
70
1
0
BLOCK_RECORD
5
1F
100
AcDbSymbolTableRecord
100
AcDbBlockTableRecord
2
*MODEL_SPACE
0
BLOCK_RECORD
5
1B
100
AcDbSymbolTableRecord
100
AcDbBlockTableRecord
2
*PAPER_SPACE
0
ENDTAB
0
ENDSEC
0
SECTION
2
BLOCKS
0
BLOCK
5
20
100
AcDbEntity
100
AcDbBlockBegin
2
*MODEL_SPACE
0
ENDBLK
5
21
100
AcDbEntity
100
AcDbBlockEnd
0
BLOCK
5
1C
100
AcDbEntity
100
AcDbBlockBegin
2
*PAPER_SPACE
0
ENDBLK
5
1D
100
AcDbEntity
100
AcDbBlockEnd
0
ENDSEC
0
SECTION
2
ENTITIES
0
LWPOLYLINE
5
100
100
AcDbEntity
8
0
100
AcDbPolyline
90
28
70
1
43
0.0
10
-779.33656665038995
20
510.49906597509988
10
-779.33656665038995
20
481.7910626411433
42
0.41421356237312712
10
-778.03656665038989
20
480.49106264114329
10
-760.63656665038991
20
480.49106264114329
42
0.41421356237309503
10
-759.33656665038995
20
481.7910626411433
10
-759.33656665038995
20
510.49906597509988
10
-717.33656665038995
20
510.49906597509988
10
-717.33656665038984
20
276.49945449829022
10
-1017.3365666503896
20
276.49945449829011
10
-1017.3365666503898
20
510.49907027509971
10
-918.93612534366207
20
510.49907027509988
10
-918.93612534366207
20
491.69104259721928
42
0.41421356237314311
10
-917.636125343662
20
490.39104259721921
10
-900.13612534367542
20
490.3910425972191
42
0.41421356237309503
10
-898.83612534367535
20
491.69104259721911
10
-898.83612534367535
20
510.49906836775108
10
-889.33612534367523
20
510.49906836775114
10
-889.33612534367569
20
472.8040611543185
42
0.41421356237326645
10
-884.2361253436452
20
467.7040611543448
10
-850.43612534364468
20
467.70406115434383
42
0.41421356236953266
10
-845.33612534367489
20
472.8040611543131
10
-845.33612534367319
20
510.49906168746895
10
-835.83612534367319
20
510.49906168746901
10
-835.83612534367319
20
491.69104259721917
42
0.414213562373063
10
-834.53612534367335
20
490.39104259721915
10
-817.03612534366232
20
490.39104259721921
42
0.41421356237312712
10
-815.73612534366225
20
491.69104259721917
10
-815.73612534366237
20
510.49906597509971
0
CIRCLE
5
101
100
AcDbEntity
8
0
100
AcDbCircle
10
-727.33656665039007
20
286.49945449829033
30
3.5527136788005009e-14
40
2.6000000000000174
210
7.8204792804249312e-32
220
4.6125654603887141e-47
230
1
0
CIRCLE
5
102
100
AcDbEntity
8
0
100
AcDbCircle
10
-1007.3365666503898
20
500.49106264114323
30
3.5527136788005009e-14
40
2.6000000000000174
210
7.8204792804249312e-32
220
4.6125654603887141e-47
230
1
0
CIRCLE
5
103
100
AcDbEntity
8
0
100
AcDbCircle
10
-727.33656665039007
20
500.49106264114346
30
0
40
2.6000000000000019
210
7.8204792804249662e-32
220
4.6125654603887346e-47
230
1
0
CIRCLE
5
104
100
AcDbEntity
8
0
100
AcDbCircle
10
-1007.33656665039
20
286.49945449829022
30
3.5527136788005009e-14
40
2.6000000000000174
210
7.8204792804249312e-32
220
4.6125654603887141e-47
230
1
0
ENDSEC
0
SECTION
2
OBJECTS
0
DICTIONARY
5
C
100
AcDbDictionary
3
ACAD_GROUP
350
D
3
ACAD_MLINESTYLE
350
17
0
DICTIONARY
5
D
100
AcDbDictionary
0
DICTIONARY
5
1A
330
C
100
AcDbDictionary
0
DICTIONARY
5
17
100
AcDbDictionary
0
ENDSEC
0
EOF
